Coordinates
version=1
nRows=17
nColumns=40
inDegrees=yes

Units are S.I. units (second, meters, Newtons, ...)
If the header above contains a line with 'inDegrees', this indicates whether rotational values are in degrees (yes) or radians (no).

endheader
time	pelvis_tilt	pelvis_list	pelvis_rotation	pelvis_tx	pelvis_ty	pelvis_tz	hip_flexion_r	hip_adduction_r	hip_rotation_r	knee_angle_r	knee_angle_r_beta	ankle_angle_r	subtalar_angle_r	mtp_angle_r	hip_flexion_l	hip_adduction_l	hip_rotation_l	knee_angle_l	knee_angle_l_beta	ankle_angle_l	subtalar_angle_l	mtp_angle_l	lumbar_extension	lumbar_bending	lumbar_rotation	arm_flex_r	arm_add_r	arm_rot_r	elbow_flex_r	pro_sup_r	wrist_flex_r	wrist_dev_r	arm_flex_l	arm_add_l	arm_rot_l	elbow_flex_l	pro_sup_l	wrist_flex_l	wrist_dev_l
      8.90000000	      6.54846233	     -4.61751184	    179.53674545	      0.31351417	      0.89887719	     -0.62290848	     33.18336450	    -11.09307945	     -3.54486045	     27.66466971	      0.48283957	      2.14879995	      0.00000000	      0.00000000	     30.68638768	     -6.61560005	    -17.73898068	     27.84325593	      0.48595649	     -0.34781884	      0.00000000	      0.00000000	    -37.95872540	     -3.51278601	     -2.48058295	     34.71438736	     -1.75806762	     37.85400365	      3.00035480	      9.00488486	      0.00000000	      0.00000000	     41.02627037	     -8.20251662	     82.67539298	      4.09545020	     84.96287730	      0.00000000	      0.00000000
      8.90500000	      6.45814271	     -4.65809275	    179.50081000	      0.31254737	      0.89919018	     -0.62290906	     32.99653159	    -11.16798789	     -3.67206685	     27.63233017	      0.48227514	      2.19520189	      0.00000000	      0.00000000	     30.46192223	     -6.58332206	    -17.85032514	     27.76660565	      0.48461869	     -0.27915373	      0.00000000	      0.00000000	    -37.50594225	     -3.57510761	     -2.47599174	     34.31283613	     -1.74352565	     37.81377612	      2.96299587	      9.00458478	      0.00000000	      0.00000000	     40.59947726	     -8.22281808	     82.69501562	      4.12258369	     84.97477976	      0.00000000	      0.00000000
      8.91000000	      6.22321225	     -4.68865007	    179.53591289	      0.31159979	      0.89979004	     -0.62265638	     32.66208030	    -11.32518494	     -4.05899252	     27.67038699	      0.48293936	      2.32455051	      0.00000000	      0.00000000	     30.03210115	     -6.42281985	    -17.64337192	     27.56543830	      0.48110766	     -0.09672821	      0.00000000	      0.00000000	    -37.21564816	     -3.56132171	     -2.56400818	     33.98422323	     -1.78774198	     37.80378914	      3.04605388	      9.03603175	      0.00000000	      0.00000000	     40.21809246	     -8.25969310	     82.76313393	      4.13316032	     84.97923820	      0.00000000	      0.00000000
      8.91500000	      6.13700096	     -4.72059731	    179.43368317	      0.31064604	      0.90007198	     -0.62284217	     32.48436079	    -11.33437825	     -4.10629631	     27.62683446	      0.48217922	      2.35775379	      0.00000000	      0.00000000	     29.80612031	     -6.43724750	    -17.89020136	     27.47831862	      0.47958713	     -0.03955358	      0.00000000	      0.00000000	    -36.74008286	     -3.66662386	     -2.50214867	     33.59073060	     -1.76019503	     37.77186702	      2.98176443	      9.03082620	      0.00000000	      0.00000000	     39.79620336	     -8.30564015	     82.78730730	      4.15632967	     84.99407220	      0.00000000	      0.00000000
      8.92000000	      6.06545266	     -4.77260752	    179.43260937	      0.30954763	      0.90040597	     -0.62278488	     32.27896994	    -11.46477435	     -4.38472075	     27.54666291	      0.48077997	      2.43325405	      0.00000000	      0.00000000	     29.55844226	     -6.36040205	    -17.96316674	     27.35992587	      0.47752079	      0.05104765	      0.00000000	      0.00000000	    -36.25019489	     -3.71732981	     -2.54765232	     33.16471087	     -1.72419891	     37.74371678	      2.96753743	      9.03514253	      0.00000000	      0.00000000	     39.36527134	     -8.32966258	     82.84132499	      4.19378714	     85.01508088	      0.00000000	      0.00000000
      8.92500000	      5.50809827	     -4.84544169	    179.49461637	      0.30828849	      0.90181202	     -0.62228139	     31.45476690	    -11.72497714	     -4.97701115	     27.37001068	      0.47769680	      2.51812839	      0.00000000	      0.00000000	     28.61960095	     -6.06724033	    -17.83435871	     26.84333890	      0.46850465	      0.23520606	      0.00000000	      0.00000000	    -36.32249752	     -3.68368329	     -2.69480291	     32.83576957	     -1.87475322	     38.10031969	      2.93179470	     10.18058710	      0.00000000	      0.00000000	     39.00636277	     -8.36125972	     83.32429526	      4.26374077	     84.21015119	      0.00000000	      0.00000000
      8.93000000	      5.46557665	     -4.89702072	    179.41782979	      0.30731708	      0.90198215	     -0.62236293	     31.32855490	    -11.78511276	     -5.04493172	     27.34877358	      0.47732615	      2.55575106	      0.00000000	      0.00000000	     28.44017602	     -6.04870435	    -18.02855026	     26.78013436	      0.46740152	      0.26364513	      0.00000000	      0.00000000	    -35.79754820	     -3.78412108	     -2.65451143	     32.44723841	     -1.84316145	     38.08298262	      2.89748565	     10.14661820	      0.00000000	      0.00000000	     38.60099830	     -8.38550943	     83.33477044	      4.28965107	     84.29130462	      0.00000000	      0.00000000
      8.93500000	      5.28764471	     -4.92984197	    179.47368301	      0.30625327	      0.90250218	     -0.62204670	     31.05927824	    -11.96662048	     -5.49000017	     27.43122370	      0.47876517	      2.72483525	      0.00000000	      0.00000000	     28.03703360	     -5.87168256	    -17.81745503	     26.50069621	      0.46252440	      0.43452926	      0.00000000	      0.00000000	    -35.43811273	     -3.75370945	     -2.74954474	     32.09628329	     -1.90650252	     38.25070124	      2.99899539	     10.00085801	      0.00000000	      0.00000000	     38.21277656	     -8.39067124	     83.40955052	      4.29298259	     84.60336228	      0.00000000	      0.00000000
      8.94000000	      5.18166974	     -5.02815231	    179.45559177	      0.30528304	      0.90286410	     -0.62183713	     30.77438689	    -12.09136546	     -5.49422059	     27.25908454	      0.47576078	      2.84288321	      0.00000000	      0.00000000	     27.75978564	     -5.70656118	    -17.83780067	     26.34856008	      0.45986913	      0.51510595	      0.00000000	      0.00000000	    -34.99205308	     -3.84214653	     -2.81149884	     31.74356703	     -1.89868248	     38.34376910	      3.00348341	      9.92980379	      0.00000000	      0.00000000	     37.82262769	     -8.40816514	     83.49712278	      4.30030845	     84.71330506	      0.00000000	      0.00000000
      8.94500000	      5.03487672	     -5.00307000	    179.36933054	      0.30428920	      0.90329408	     -0.62168946	     30.54588890	    -12.11420163	     -5.69942130	     27.24989488	      0.47560039	      2.86087100	      0.00000000	      0.00000000	     27.44571596	     -5.72630378	    -17.99744037	     26.24734894	      0.45810266	      0.60537085	      0.00000000	      0.00000000	    -34.58292780	     -3.83139059	     -2.71720474	     31.40101331	     -1.92897919	     38.37947714	      2.95308798	      9.89172037	      0.00000000	      0.00000000	     37.42641919	     -8.39214644	     83.56328898	      4.33275456	     84.75994489	      0.00000000	      0.00000000
      8.95000000	      4.63468893	     -5.20507345	    179.42710641	      0.30280669	      0.90433388	     -0.62148899	     30.00101943	    -12.49228253	     -6.18619910	     27.29455995	      0.47637994	      2.97204518	      0.00000000	      0.00000000	     26.68725226	     -5.37207252	    -18.03008453	     25.80349631	      0.45035597	      0.61518718	      0.00000000	      0.00000000	    -34.45313686	     -3.97644555	     -2.91746824	     30.96496425	     -2.01871485	     39.04676614	      3.05182294	      9.71809370	      0.00000000	      0.00000000	     37.04183828	     -8.42296595	     83.88305264	      4.30454684	     84.86280556	      0.00000000	      0.00000000
      8.95500000	      4.52815351	     -5.23939548	    179.34019828	      0.30194957	      0.90466719	     -0.62123879	     29.76627681	    -12.51258386	     -6.07188536	     27.17296041	      0.47425763	      3.03307269	      0.00000000	      0.00000000	     26.44708908	     -5.33103156	    -18.15402971	     25.73349152	      0.44913416	      0.69996926	      0.00000000	      0.00000000	    -34.00988983	     -4.02007444	     -2.84025045	     30.63844464	     -2.06374280	     39.06728600	      2.99963504	      9.69729405	      0.00000000	      0.00000000	     36.66794026	     -8.39376181	     83.91012189	      4.34355779	     84.87862940	      0.00000000	      0.00000000
      8.96000000	      4.38694063	     -5.42775051	    179.40306128	      0.30053389	      0.90504334	     -0.62109910	     29.50817838	    -12.82567126	     -6.32815890	     27.19160485	      0.47458303	      3.22954951	      0.00000000	      0.00000000	     26.08430708	     -5.03974860	    -18.13139797	     25.55424960	      0.44600579	      0.89290073	      0.00000000	      0.00000000	    -33.56996024	     -4.16918192	     -2.99809542	     30.21023290	     -2.10131826	     39.14732504	      3.06308398	      9.68335537	      0.00000000	      0.00000000	     36.22632952	     -8.40745280	     83.96372806	      4.32890575	     84.88756040	      0.00000000	      0.00000000
      8.96500000	      3.97096197	     -5.58563197	    179.39995503	      0.29916691	      0.90607999	     -0.62079180	     28.95365454	    -13.11223377	     -6.65669928	     27.22018998	      0.47508194	      3.37662718	      0.00000000	      0.00000000	     25.30241469	     -4.75538647	    -18.22259860	     25.08804692	      0.43786902	      0.94139531	      0.00000000	      0.00000000	    -33.45242876	     -4.28040155	     -3.11572084	     29.83191580	     -2.20593871	     39.46142893	      3.15094574	      9.67566675	      0.00000000	      0.00000000	     35.83925411	     -8.40667207	     84.02668158	      4.33374041	     84.87425940	      0.00000000	      0.00000000
      8.97000000	      3.55666355	     -5.79347668	    179.35418721	      0.29771400	      0.90707044	     -0.62062456	     28.40411735	    -13.43234816	     -6.92599838	     27.20002784	      0.47473004	      3.40780754	      0.00000000	      0.00000000	     24.57326950	     -4.47621929	    -18.47122046	     24.75746590	      0.43209929	      0.82611751	      0.00000000	      0.00000000	    -33.32043120	     -4.47410978	     -3.24515208	     29.39740607	     -2.26272091	     40.11546634	      3.20090811	      9.70834044	      0.00000000	      0.00000000	     35.40589242	     -8.46146901	     84.06371006	      4.35571325	     84.90601806	      0.00000000	      0.00000000
      8.97500000	      3.40809105	     -5.87825961	    179.31868771	      0.29658661	      0.90743042	     -0.62049984	     28.15507966	    -13.56510433	     -6.99148366	     27.18049760	      0.47438918	      3.50447033	      0.00000000	      0.00000000	     24.28219880	     -4.36473852	    -18.56855421	     24.70676574	      0.43121441	      0.93376704	      0.00000000	      0.00000000	    -32.89403207	     -4.56196975	     -3.23736377	     29.00440891	     -2.30713561	     40.12123935	      3.18653081	      9.70932698	      0.00000000	      0.00000000	     35.00882495	     -8.45568739	     84.04704486	      4.39550328	     84.91565262	      0.00000000	      0.00000000
      8.98000000	      3.14439390	     -5.93158516	    179.31971354	      0.29529193	      0.90802197	     -0.62020868	     27.79898820	    -13.74931584	     -7.31708264	     27.27815908	      0.47609369	      3.63445640	      0.00000000	      0.00000000	     23.84521443	     -4.25595864	    -18.58197260	     24.61511410	      0.42961479	      1.07971357	      0.00000000	      0.00000000	    -32.59407366	     -4.57841968	     -3.27396425	     28.61896805	     -2.39329758	     40.15264760	      3.25107879	      9.73090342	      0.00000000	      0.00000000	     34.60708379	     -8.43969224	     83.96640558	      4.43580431	     84.90076857	      0.00000000	      0.00000000
